<?xml version="1.0" encoding="utf-8"?>
<!-- Generator: Adobe Illustrator 24.1.3, SVG Export Plug-In . SVG Version: 6.00 Build 0)  -->
<svg version="1.1" id="Layer_1" xmlns="http://www.w3.org/2000/svg" xmlns:xlink="http://www.w3.org/1999/xlink" x="0px"
     y="0px"
     viewBox="0 0 256 256" style="enable-background:new 0 0 256 256;" xml:space="preserve">
<style type="text/css">
	.st0{fill:#FFFFFF;}
</style>
    <rect width="256" height="256"/>
    <g>
	<g>
		<path class="st0" d="M8.7,162.6V158h13.8v4.6H8.7z M12.2,179.9v-24.4c0-1.4,0.3-2.6,0.9-3.6c0.6-1.1,1.4-1.9,2.5-2.5
			c1-0.6,2.3-0.9,3.7-0.9c1,0,1.9,0.2,2.7,0.5c0.8,0.3,1.5,0.8,2.1,1.3l-1.6,4c-0.4-0.3-0.8-0.6-1.2-0.7s-0.8-0.3-1.2-0.3
			c-0.6,0-1,0.1-1.4,0.3s-0.7,0.5-0.9,0.8c-0.2,0.4-0.3,0.8-0.3,1.3v24.2h-2.6c-0.5,0-1,0-1.4,0C13,179.9,12.5,179.9,12.2,179.9z
			 M30,152.8c-1,0-1.9-0.3-2.4-0.8c-0.6-0.5-0.9-1.3-0.9-2.2c0-0.9,0.3-1.6,0.9-2.2c0.6-0.6,1.4-0.9,2.4-0.9c1.1,0,1.9,0.3,2.5,0.8
			c0.6,0.5,0.9,1.3,0.9,2.3c0,0.9-0.3,1.6-0.9,2.2C31.9,152.5,31,152.8,30,152.8z M27.4,179.9v-22.4h5.2v22.4H27.4z"/>
        <path class="st0" d="M51.7,180.4c-1,0-2-0.1-2.9-0.4c-1-0.3-1.8-0.7-2.6-1.2c-0.8-0.5-1.4-1.1-1.9-1.7c-0.5-0.6-0.9-1.3-1-1.9
			l1.2-0.6l-0.1,5.4h-5.1v-31.4h5.2v14.2l-0.9-0.4c0.1-0.7,0.5-1.3,1-1.9c0.5-0.6,1.1-1.2,1.9-1.7c0.7-0.5,1.5-0.9,2.4-1.2
			c0.9-0.3,1.8-0.4,2.7-0.4c2,0,3.8,0.5,5.3,1.5c1.5,1,2.8,2.4,3.7,4.1c0.9,1.8,1.3,3.8,1.3,6c0,2.3-0.4,4.3-1.3,6
			c-0.9,1.8-2.1,3.1-3.6,4.1C55.3,179.9,53.6,180.4,51.7,180.4z M50.6,175.8c1.2,0,2.3-0.3,3.2-0.9c0.9-0.6,1.7-1.4,2.2-2.5
			c0.5-1.1,0.8-2.3,0.8-3.7c0-1.4-0.3-2.6-0.8-3.6c-0.5-1-1.3-1.9-2.2-2.5c-0.9-0.6-2-0.9-3.2-0.9c-1.2,0-2.3,0.3-3.2,0.9
			c-0.9,0.6-1.7,1.4-2.2,2.5c-0.5,1-0.8,2.3-0.8,3.6c0,1.4,0.3,2.6,0.8,3.7c0.5,1.1,1.3,1.9,2.2,2.5
			C48.3,175.5,49.4,175.8,50.6,175.8z"/>
        <path class="st0" d="M77,180.4c-2.4,0-4.4-0.5-6.2-1.5c-1.8-1-3.2-2.3-4.2-4.1c-1-1.7-1.5-3.7-1.5-5.9c0-1.8,0.3-3.4,0.9-4.8
			c0.6-1.4,1.4-2.7,2.4-3.8c1-1.1,2.2-1.9,3.6-2.5c1.4-0.6,2.9-0.9,4.6-0.9c1.5,0,2.8,0.3,4.1,0.9c1.3,0.6,2.4,1.3,3.3,2.3
			s1.7,2.1,2.1,3.5c0.5,1.3,0.7,2.8,0.7,4.4l0,1.8H68.6l-1-3.6h14.8l-0.7,0.7v-0.9c-0.1-0.9-0.4-1.7-0.9-2.3
			c-0.5-0.7-1.1-1.2-1.9-1.6c-0.8-0.4-1.6-0.6-2.5-0.6c-1.4,0-2.6,0.3-3.5,0.8c-1,0.5-1.7,1.3-2.1,2.3c-0.5,1-0.7,2.3-0.7,3.8
			c0,1.4,0.3,2.7,0.9,3.8c0.6,1.1,1.5,1.9,2.6,2.5c1.1,0.6,2.4,0.9,3.9,0.9c1,0,2-0.2,2.9-0.5c0.9-0.3,1.8-0.9,2.8-1.8l2.6,3.6
			c-0.8,0.7-1.6,1.3-2.6,1.8c-1,0.5-2,0.9-3.1,1.2C79.1,180.2,78.1,180.4,77,180.4z"/>
        <path class="st0" d="M91.4,179.9v-22.4h5.1l0.1,7.1l-0.7-1.6c0.3-1.1,0.9-2.2,1.6-3.1c0.8-0.9,1.7-1.6,2.7-2.1
			c1-0.5,2.1-0.8,3.2-0.8c0.5,0,0.9,0,1.4,0.1c0.4,0.1,0.8,0.2,1.1,0.3l-1.4,5.7c-0.3-0.2-0.7-0.3-1.1-0.4c-0.5-0.1-0.9-0.2-1.4-0.2
			c-0.7,0-1.4,0.1-2,0.4s-1.2,0.6-1.7,1.1c-0.5,0.5-0.9,1-1.1,1.7c-0.3,0.6-0.4,1.4-0.4,2.1v11.9L91.4,179.9L91.4,179.9z"/>
        <path class="st0" d="M130.3,180.4c-1.8,0-3.5-0.5-5-1.5c-1.5-1-2.7-2.4-3.6-4.2c-0.9-1.8-1.4-3.8-1.4-6c0-2.2,0.5-4.2,1.4-6
			c0.9-1.8,2.1-3.1,3.7-4.1c1.6-1,3.3-1.5,5.3-1.5c1.1,0,2.2,0.2,3.1,0.5c0.9,0.3,1.8,0.8,2.5,1.4c0.7,0.6,1.3,1.3,1.8,2
			c0.5,0.8,0.8,1.6,1,2.5l-1.1-0.3v-5.6h5.3v22.4h-5.3v-5.4l1.2-0.2c-0.2,0.8-0.6,1.5-1.1,2.2s-1.2,1.4-2,1.9
			c-0.8,0.6-1.6,1-2.6,1.3C132.4,180.2,131.4,180.4,130.3,180.4z M131.8,175.7c1.2,0,2.3-0.3,3.2-0.9s1.7-1.4,2.2-2.5
			c0.5-1.1,0.8-2.3,0.8-3.7c0-1.4-0.3-2.6-0.8-3.6c-0.5-1-1.3-1.9-2.2-2.5c-0.9-0.6-2-0.9-3.2-0.9c-1.2,0-2.3,0.3-3.2,0.9
			c-0.9,0.6-1.6,1.4-2.1,2.5c-0.5,1-0.8,2.3-0.8,3.6c0,1.4,0.3,2.6,0.8,3.7c0.5,1.1,1.2,1.9,2.1,2.5S130.5,175.7,131.8,175.7z"/>
        <path class="st0" d="M158.2,180.4c-2,0-3.8-0.5-5.3-1.5c-1.6-1-2.8-2.4-3.7-4.1c-0.9-1.7-1.4-3.7-1.4-6c0-2.2,0.5-4.2,1.4-6
			c0.9-1.8,2.1-3.1,3.7-4.1c1.6-1,3.4-1.5,5.3-1.5c1.1,0,2.1,0.2,3.1,0.5c1,0.3,1.9,0.8,2.7,1.4c0.8,0.6,1.4,1.2,1.9,1.9
			s0.7,1.4,0.8,2.2l-1.4,0.2v-14.8h5.2v31.5h-5.1l-0.1-5.3l1,0.1c0,0.7-0.3,1.4-0.7,2c-0.5,0.7-1.1,1.2-1.8,1.8
			c-0.7,0.5-1.6,1-2.6,1.3C160.2,180.2,159.2,180.4,158.2,180.4z M159.2,175.9c1.2,0,2.3-0.3,3.2-0.9c0.9-0.6,1.7-1.5,2.2-2.6
			c0.5-1.1,0.8-2.3,0.8-3.7c0-1.4-0.3-2.6-0.8-3.7c-0.5-1.1-1.3-1.9-2.2-2.6c-0.9-0.6-2-0.9-3.2-0.9c-1.2,0-2.3,0.3-3.2,0.9
			c-0.9,0.6-1.7,1.5-2.2,2.6c-0.5,1.1-0.8,2.3-0.8,3.7c0,1.4,0.3,2.7,0.8,3.7c0.5,1.1,1.3,1.9,2.2,2.6
			C156.9,175.6,158,175.9,159.2,175.9z"/>
        <path class="st0" d="M176.3,179.9v-22.4h5.1l0.1,4.5l-0.9,0.3c0.3-0.7,0.6-1.4,1.1-2.1c0.5-0.6,1.1-1.2,1.8-1.7
			c0.7-0.5,1.5-0.8,2.3-1.1c0.8-0.3,1.6-0.4,2.4-0.4c1.2,0,2.3,0.2,3.3,0.6c0.9,0.4,1.7,1,2.4,1.8s1.1,1.9,1.4,3.1l-0.8-0.2l0.3-0.7
			c0.3-0.7,0.8-1.3,1.3-1.9c0.6-0.6,1.2-1,1.9-1.5c0.7-0.4,1.5-0.8,2.2-1c0.8-0.2,1.6-0.3,2.3-0.3c1.7,0,3.1,0.3,4.3,1
			c1.1,0.7,2,1.7,2.6,3.1c0.6,1.4,0.9,3.1,0.9,5.1v13.5h-5.3v-13.2c0-1.1-0.1-2.1-0.4-2.8c-0.3-0.7-0.8-1.3-1.4-1.6
			c-0.6-0.4-1.4-0.5-2.3-0.5c-0.7,0-1.4,0.1-2,0.4s-1.2,0.6-1.6,1c-0.5,0.4-0.8,0.9-1.1,1.5c-0.3,0.6-0.4,1.2-0.4,1.9v13.4h-5.3
			v-13.2c0-1.1-0.2-2-0.5-2.7c-0.3-0.7-0.8-1.3-1.4-1.7s-1.3-0.6-2.2-0.6c-0.7,0-1.4,0.1-2,0.4c-0.6,0.2-1.2,0.6-1.6,1
			c-0.5,0.4-0.8,0.9-1.1,1.5c-0.3,0.6-0.4,1.2-0.4,1.9v13.4H176.3z"/>
        <path class="st0" d="M219.4,152.8c-1,0-1.9-0.3-2.4-0.8c-0.6-0.5-0.9-1.3-0.9-2.2c0-0.9,0.3-1.6,0.9-2.2c0.6-0.6,1.4-0.9,2.4-0.9
			c1.1,0,1.9,0.3,2.5,0.8c0.6,0.5,0.9,1.3,0.9,2.3c0,0.9-0.3,1.6-0.9,2.2S220.4,152.8,219.4,152.8z M216.8,179.9v-22.4h5.2v22.4
			H216.8z"/>
        <path class="st0" d="M228.7,179.9v-22.4h5.1l0.1,4.6l-1,0.5c0.3-1,0.8-1.9,1.7-2.8c0.8-0.8,1.8-1.5,2.9-2c1.1-0.5,2.3-0.8,3.5-0.8
			c1.7,0,3.1,0.3,4.3,1c1.1,0.7,2,1.7,2.6,3.1c0.6,1.4,0.9,3.1,0.9,5.1v13.7h-5.2v-13.3c0-1.1-0.2-2.1-0.5-2.8
			c-0.3-0.8-0.8-1.3-1.4-1.7c-0.7-0.4-1.4-0.5-2.4-0.5c-0.8,0-1.5,0.1-2.1,0.4s-1.2,0.6-1.7,1c-0.5,0.4-0.8,0.9-1.1,1.5
			c-0.3,0.6-0.4,1.2-0.4,1.9v13.5h-2.6c-0.5,0-1,0-1.4,0C229.4,179.9,229,179.9,228.7,179.9z"/>
	</g>
        <g>
		<g>
			<g>
				<g>
					<g>
						<path class="st0" d="M125.6,99.2c-4.3,0-7.7,3.5-7.7,7.7s3.5,7.7,7.7,7.7s7.7-3.5,7.7-7.7C133.4,102.7,129.9,99.2,125.6,99.2z
							 M125.6,113.3c-3.5,0-6.3-2.8-6.3-6.3s2.8-6.3,6.3-6.3s6.3,2.8,6.3,6.3S129.1,113.3,125.6,113.3z"/>
                        <path class="st0" d="M154.8,101.1c-0.1,0-0.3,0-0.4,0c-0.7-3.7-2.2-7.2-4.3-10.4c0.1-0.1,0.2-0.2,0.3-0.3
							c1.1-1.1,1.7-2.6,1.7-4.1c0-1.6-0.6-3-1.7-4.1c-2.3-2.3-6-2.3-8.3,0c-0.1,0.1-0.2,0.2-0.3,0.3c-3.2-2.1-6.6-3.5-10.4-4.3
							c0-0.1,0-0.3,0-0.4c0-3.2-2.6-5.9-5.9-5.9c-3.2,0-5.9,2.6-5.9,5.9c0,0.1,0,0.3,0,0.4c-3.7,0.7-7.2,2.2-10.4,4.3
							c-0.1-0.1-0.2-0.2-0.3-0.3c-2.3-2.3-6-2.3-8.3,0c-2.3,2.3-2.3,6,0,8.3c0.1,0.1,0.2,0.2,0.3,0.3c-2.1,3.2-3.5,6.6-4.3,10.4
							c-0.1,0-0.3,0-0.4,0c-3.2,0-5.9,2.6-5.9,5.9c0,3.4,2.8,6.1,6.2,5.8c0.7,3.7,2.2,7.2,4.3,10.4c-0.1,0.1-0.2,0.2-0.3,0.3
							c-2.3,2.3-2.3,6,0,8.3c1.1,1.1,2.6,1.7,4.1,1.7c1.6,0,3-0.6,4.1-1.7c0.1-0.1,0.2-0.2,0.3-0.3c3.2,2.1,6.6,3.5,10.4,4.3
							c0,0.1,0,0.3,0,0.4c0,3.2,2.6,5.9,5.9,5.9c3.2,0,5.9-2.6,5.9-5.9c0-0.1,0-0.3,0-0.4c3.7-0.7,7.2-2.2,10.4-4.3
							c0.1,0.1,0.2,0.2,0.3,0.3c1.1,1.1,2.6,1.7,4.1,1.7c1.6,0,3-0.6,4.1-1.7c1.1-1.1,1.7-2.6,1.7-4.1c0-1.6-0.6-3-1.7-4.1
							c-0.1-0.1-0.2-0.2-0.3-0.3c2.1-3.2,3.5-6.6,4.3-10.4c3.4,0.3,6.2-2.5,6.2-5.8C160.6,103.7,158,101.1,154.8,101.1z
							 M154.8,111.4c-0.3,0-0.5,0-0.8-0.1c-0.2,0-0.4,0-0.5,0.1c-0.2,0.1-0.3,0.3-0.3,0.5c-0.7,4-2.2,7.7-4.6,11
							c-0.1,0.2-0.2,0.3-0.1,0.5c0,0.2,0.1,0.4,0.3,0.5c0.2,0.2,0.5,0.3,0.6,0.5c0.8,0.8,1.3,2,1.3,3.1c0,1.2-0.5,2.3-1.3,3.1
							c-0.8,0.8-2,1.3-3.1,1.3c-1.2,0-2.3-0.5-3.1-1.3c-0.2-0.2-0.3-0.4-0.5-0.6c-0.1-0.2-0.3-0.3-0.5-0.3c-0.2,0-0.4,0-0.5,0.1
							c-3.3,2.3-7,3.9-11,4.6c-0.2,0-0.4,0.1-0.5,0.3c-0.1,0.2-0.1,0.3-0.1,0.5c0.1,0.3,0.1,0.6,0.1,0.8c0,2.4-2,4.4-4.4,4.4
							s-4.4-2-4.4-4.4c0-0.3,0-0.5,0.1-0.8c0-0.2,0-0.4-0.1-0.5c-0.1-0.2-0.3-0.3-0.5-0.3c-4-0.7-7.7-2.2-11-4.6
							c-0.1-0.1-0.3-0.1-0.4-0.1c0,0-0.1,0-0.1,0c-0.2,0-0.4,0.1-0.5,0.3c-0.2,0.2-0.3,0.5-0.5,0.6c-0.8,0.8-2,1.3-3.1,1.3
							c-1.2,0-2.3-0.5-3.1-1.3c-1.7-1.7-1.7-4.5,0-6.3c0.2-0.2,0.4-0.3,0.6-0.5c0.2-0.1,0.3-0.3,0.3-0.5c0-0.2,0-0.4-0.1-0.5
							c-2.3-3.3-3.9-7-4.6-11c0-0.2-0.1-0.4-0.3-0.5c-0.2-0.1-0.3-0.1-0.5-0.1c-0.3,0.1-0.6,0.1-0.8,0.1c-2.4,0-4.4-2-4.4-4.4
							s2-4.4,4.4-4.4c0.3,0,0.5,0,0.8,0.1c0.2,0,0.4,0,0.5-0.1c0.2-0.1,0.3-0.3,0.3-0.5c0.7-4,2.2-7.7,4.6-11
							c0.1-0.2,0.2-0.3,0.1-0.5c0-0.2-0.1-0.4-0.3-0.5c-0.3-0.2-0.5-0.3-0.6-0.5c-1.7-1.7-1.7-4.5,0-6.3c1.7-1.7,4.5-1.7,6.3,0
							c0.2,0.2,0.3,0.4,0.5,0.6c0.1,0.2,0.3,0.3,0.5,0.3c0.2,0,0.4,0,0.5-0.1c3.3-2.3,7-3.9,11-4.6c0.2,0,0.4-0.1,0.5-0.3
							c0.1-0.2,0.1-0.3,0.1-0.5c-0.1-0.3-0.1-0.6-0.1-0.8c0-2.4,2-4.4,4.4-4.4c2.4,0,4.4,2,4.4,4.4c0,0.3,0,0.5-0.1,0.8
							c0,0.2,0,0.4,0.1,0.5c0.1,0.2,0.3,0.3,0.5,0.3c4,0.7,7.7,2.2,11,4.6c0.2,0.1,0.3,0.2,0.5,0.1c0.2,0,0.4-0.1,0.5-0.3
							c0.2-0.3,0.3-0.5,0.5-0.6c1.7-1.7,4.5-1.7,6.3,0c0.8,0.8,1.3,2,1.3,3.1c0,1.2-0.5,2.3-1.3,3.1c-0.2,0.2-0.4,0.4-0.6,0.5
							c-0.2,0.1-0.3,0.3-0.3,0.5c0,0.2,0,0.4,0.1,0.5c2.3,3.3,3.9,7,4.6,11c0,0.2,0.1,0.4,0.3,0.5c0.2,0.1,0.3,0.2,0.5,0.1
							c0.3-0.1,0.6-0.1,0.8-0.1c2.4,0,4.4,2,4.4,4.4C159.2,109.4,157.2,111.4,154.8,111.4z"/>
                        <path class="st0" d="M144.5,96.1c-0.2,0.1-0.3,0.4-0.2,0.7c1.3,2.4,2,4.9,2.3,7.5l-3.5-0.7c0,0-0.1,0-0.1,0
							c-1.6-8.2-8.8-14.4-17.5-14.4c-1,0-2,0.1-3,0.3l0.5-3.6c0.8-0.1,1.6-0.1,2.5-0.1c0.3,0,0.5-0.2,0.5-0.5c0-0.3-0.2-0.5-0.5-0.5
							c-7.5,0-14.4,3.7-18.6,10c-0.2,0.2-0.1,0.5,0.1,0.7c0.1,0.1,0.2,0.1,0.3,0.1c0.2,0,0.3-0.1,0.4-0.2c1.2-1.8,2.6-3.3,4.2-4.6
							l-0.5,5.1c0,0.1,0,0.3,0.1,0.4c-2.4,3-3.8,6.8-3.8,10.9c0,1.1,0.1,2.1,0.3,3.2l-3.6-0.5c-0.1-0.9-0.2-1.8-0.2-2.7
							c0-0.3-0.2-0.5-0.5-0.5c-0.3,0-0.5,0.2-0.5,0.5c0,1,0.1,1.9,0.2,2.8c0,0.1,0,0,0.1,0.6c0.9,6.1,4.4,11.5,9.5,15
							c0.1,0.1,0.2,0.1,0.3,0.1c0.2,0,0.3-0.1,0.4-0.2c0.2-0.2,0.1-0.5-0.1-0.7c-1.8-1.2-3.4-2.7-4.7-4.3l3.7-0.7
							c0.1,0,0.2-0.1,0.2-0.1c3.2,3.3,7.7,5.3,12.7,5.3c1.1,0,2.2-0.1,3.2-0.3l-0.7,3.6c-0.8,0.1-1.7,0.2-2.5,0.2h0
							c-0.3,0-0.5,0.2-0.5,0.5s0.2,0.5,0.5,0.5h0c7.6,0,14.6-4.1,18.8-11c4.2-7,4.4-15.2,0.8-21.9C145.1,96.1,144.7,96,144.5,96.1z
							 M117.9,87.2c1.4-0.5,2.8-0.9,4.2-1.2l-0.5,3.7c-1.4,0.3-2.8,0.8-4,1.5L117.9,87.2C117.9,87.2,117.9,87.2,117.9,87.2z
							 M113.1,89.8c1.2-0.9,2.4-1.6,3.7-2.2l-0.3,4c0,0.1,0,0.1,0,0.2c-1.5,0.9-2.8,2-4,3.2L113.1,89.8z M104.7,110.7l3.6,0.5
							c0,0,0,0,0.1,0c0,0,0,0,0,0c0.3,1.1,0.6,2.1,1.1,3.1h-3.8C105.2,113.1,104.9,111.9,104.7,110.7z M108.4,119.4
							c-0.9-1.3-1.7-2.7-2.3-4.1l3.8,0c0.1,0-0.1,0,0-0.1c0.7,1.2,1.5,2.4,2.4,3.4L108.4,119.4z M125.6,123.8
							c-9.3,0-16.8-7.5-16.8-16.8c0-9.3,7.5-16.8,16.8-16.8s16.8,7.5,16.8,16.8S134.9,123.8,125.6,123.8z M132.9,126.9
							c-1.2,0.5-2.4,0.8-3.7,1l0.7-3.7c1.1-0.3,2.2-0.7,3.3-1.2l-0.4,3.7C132.9,126.8,132.9,126.8,132.9,126.9z M133.9,126.5l0.4-4
							c1.3-0.7,2.4-1.6,3.5-2.5l0.8,3.6C137.1,124.7,135.6,125.7,133.9,126.5z M139.4,122.8l-0.8-3.5c0-0.1,0-0.1-0.1-0.2
							c1-1.1,1.9-2.2,2.6-3.5l1.7,2.9c0,0,0.1,0.1,0.1,0.1C141.9,120.2,140.7,121.6,139.4,122.8z M143.5,117.7
							C143.5,117.7,143.5,117.8,143.5,117.7l-1.7-2.9c0-0.1-0.1-0.1-0.2-0.2c0.7-1.4,1.2-2.9,1.5-4.5l2.8,2.1c0,0,0,0,0,0
							C145.4,114.1,144.6,115.9,143.5,117.7z M146.2,111.2l-2.8-2.1c0,0-0.1,0-0.1,0c0.1-0.7,0.1-1.4,0.1-2.1c0-0.8-0.1-1.6-0.2-2.3
							l3.3,0.6c0,0,0.1,0,0.1,0c0,0,0.1,0,0.1,0C146.8,107.2,146.6,109.2,146.2,111.2z"/>
                        <path class="st0" d="M142,93.4c0.1,0.1,0.2,0.2,0.4,0.2c0.1,0,0.2,0,0.3-0.1c0.2-0.2,0.2-0.5,0.1-0.7c-0.6-0.7-1.3-1.4-2-2.1
							c-0.2-0.2-0.5-0.2-0.7,0c-0.2,0.2-0.2,0.5,0,0.7C140.8,92,141.4,92.7,142,93.4z"/>
                        <path class="st0" d="M135.3,88c1.2,0.6,2.3,1.3,3.3,2.1c0.1,0.1,0.2,0.1,0.3,0.1c0.1,0,0.3-0.1,0.4-0.2
							c0.2-0.2,0.1-0.5-0.1-0.7c-1.1-0.8-2.2-1.6-3.5-2.2c-0.2-0.1-0.5,0-0.7,0.2C135,87.6,135.1,87.9,135.3,88z"/>
					</g>
				</g>
			</g>
            <g>
			</g>
            <g>
			</g>
            <g>
			</g>
            <g>
			</g>
            <g>
			</g>
            <g>
			</g>
            <g>
			</g>
            <g>
			</g>
            <g>
			</g>
            <g>
			</g>
            <g>
			</g>
            <g>
			</g>
            <g>
			</g>
            <g>
			</g>
            <g>
			</g>
		</g>
	</g>
</g>
</svg>
